PathFileType	4	(X/Y/Z)	S01_0006_Gait_markers.trc
DataRate	CameraRate	NumFrames	NumMarkers	Units	OrigDataRate	OrigDataStartFrame	OrigNumFrames
250.000000	250.000000	4	54	mm	250.000000	196	314
Frame#	Time	HEAD_ANT			R_HEAD			L_HEAD			C7			R_BACK			L_BACK			STERNUM			R_ACROMION			R_HUM_PROX			R_HUM_ANT			R_HUM_POST			R_ELBOW_LAT			R_ELBOW_MED			R_FOREARM			R_WIRST_LAT			R_WRITS_MED			R_HAND			L_ACROMION			L_HUM_PROX			L_HUM_ANT			L_HUM_POST			L_ELBOW_LAT			L_ELBOW_MED			L_FOREARM			L_WRIST_LAT			L_WIRST_MED			L_HAND			R_ILIAC			SACRUM			L_ILIAC			R_GTROCH			R_THIGH__1			R_THIGH_2			R_THIGH_3			R_THIGH_4			R_SHANK_1			R_SHANK_2			R_SHANK_3			R_SHANK_4			R_HEEL			R_FOOT_LAT			R_FOOT_MED			L_GTROCH			L_THIGH_1			L_THIGH_2			L_THIGH_3			L_THIGH_4			L_SHANK_1			L_SHANK_2			L_SHANK_3			L_SHANK_4			L_HEEL			L_FOOT_LAT			L_FOOT_MED			
		X1	Y1	Z1	X2	Y2	Z2	X3	Y3	Z3	X4	Y4	Z4	X5	Y5	Z5	X6	Y6	Z6	X7	Y7	Z7	X8	Y8	Z8	X9	Y9	Z9	X10	Y10	Z10	X11	Y11	Z11	X12	Y12	Z12	X13	Y13	Z13	X14	Y14	Z14	X15	Y15	Z15	X16	Y16	Z16	X17	Y17	Z17	X18	Y18	Z18	X19	Y19	Z19	X20	Y20	Z20	X21	Y21	Z21	X22	Y22	Z22	X23	Y23	Z23	X24	Y24	Z24	X25	Y25	Z25	X26	Y26	Z26	X27	Y27	Z27	X28	Y28	Z28	X29	Y29	Z29	X30	Y30	Z30	X31	Y31	Z31	X32	Y32	Z32	X33	Y33	Z33	X34	Y34	Z34	X35	Y35	Z35	X36	Y36	Z36	X37	Y37	Z37	X38	Y38	Z38	X39	Y39	Z39	X40	Y40	Z40	X41	Y41	Z41	X42	Y42	Z42	X43	Y43	Z43	X44	Y44	Z44	X45	Y45	Z45	X46	Y46	Z46	X47	Y47	Z47	X48	Y48	Z48	X49	Y49	Z49	X50	Y50	Z50	X51	Y51	Z51	X52	Y52	Z52	X53	Y53	Z53	X54	Y54	Z54	

197	0.784	1351.572021484375	1737.57421875	-345.7180786132809	1287.38671875	1680.9560546875	-277.5671081542965	1295.929077148438	1697.531982421875	-423.4027709960934	1151.338256835938	1519.643676757812	-368.5081787109372	1077.349731445312	1327.449096679688	-291.3846740722653	1079.467407226562	1321.711791992188	-427.8209228515622	1328.931762695312	1356.652954101562	-360.9562072753903	1231.52587890625	1476.241455078125	-194.9243469238278	1200.814575195312	1318.728637695312	-100.077713012695	1263.43896484375	1233.710205078125	-102.8163070678708	1143.445434570312	1234.655883789062	-82.63671874999973	1191.649536132812	1128.1572265625	-80.86437988281224	1161.052978515625	1124.373657226562	-158.5483703613279	1291.025390625	944.2726440429688	-84.46236419677713	1324.496948242188	877.2840576171875	-125.7254257202146	1261.168334960938	856.142333984375	-79.08111572265607	1331.816528320312	789.44140625	-71.15721130371077	1227.391235351562	1468.26611328125	-533.2876586914059	1199.778930664062	1296.771240234375	-618.1918334960934	1260.690185546875	1215.599609375	-616.5252685546873	1138.65869140625	1219.260620117188	-636.908508300781	1194.692626953125	1112.103515625	-638.854553222656	1146.073852539062	1111.173950195313	-580.1960449218748	1287.77392578125	932.5742187500001	-627.4926757812498	1318.998291015625	870.3897705078126	-576.7449951171873	1268.297607421875	851.5425415039064	-635.6043701171873	1339.2255859375	788.3995971679689	-624.0177001953123	1227.006958007812	1070.133056640625	-177.0833892822263	1102.067260742188	1041.146118164062	-347.3347167968748	1222.226196289062	1063.800659179688	-523.3787841796873	1180.164428710938	919.0769653320312	-162.3707580566404	1223.841674804688	640.5501708984375	-174.8727416992186	1280.585205078125	656.8082275390625	-168.5766601562499	1284.825927734375	551.6741333007812	-192.5039672851561	1220.194091796875	558.537109375	-188.7977905273436	1098.051147460938	410.3094177246094	-175.9506378173827	1119.73193359375	355.6233825683594	-187.7059936523437	1054.411987304688	300.7398376464844	-202.6879882812499	1016.599670410156	351.1596984863282	-194.7095642089843	841.0845947265625	250.756332397461	-274.7725524902343	899.5025634765625	105.4828033447266	-182.3017120361328	943.8910522460938	66.35652160644537	-266.0653076171875	1199.284790039062	954.8924560546876	-528.9662475585935	1345.9658203125	681.7410278320314	-502.4457092285155	1291.239990234375	689.2500000000001	-523.4293823242186	1294.519287109375	587.3328247070314	-487.4287719726561	1355.600708007812	603.8539428710939	-475.4342956542968	1332.4375	324.7448730468751	-463.4505615234374	1274.451171875	306.6479492187501	-469.4719543457031	1265.64990234375	222.0307159423829	-451.1019592285156	1328.63232421875	225.3402557373048	-436.8745727539062	1209.552978515625	41.38246917724618	-373.5359802246094	1386.509643554688	20.76095771789561	-442.7127075195312	1421.140014648438	27.91905975341804	-334.8403625488281	
198	0.788	1357.062133789062	1738.546752929688	-346.0636596679684	1292.911499023438	1682.14990234375	-277.9699707031246	1301.257080078125	1698.546020507812	-423.6250305175777	1156.784790039062	1520.720458984375	-368.5225830078122	1082.815551757812	1328.216186523438	-292.0200195312497	1084.977783203125	1322.854858398438	-428.4174804687497	1334.279541015625	1357.78369140625	-361.1849975585935	1236.705688476562	1477.293090820312	-195.1032867431637	1205.878173828125	1319.85107421875	-100.4427185058591	1268.423828125	1234.745971679688	-103.0263519287107	1148.470458984375	1235.638549804688	-82.73751068115207	1196.505859375	1129.246826171875	-80.87438201904271	1165.945922851562	1125.280883789062	-158.6132965087888	1295.75830078125	945.4351196289062	-84.68570709228494	1329.092651367188	878.30322265625	-126.0295944213865	1265.833374023438	857.22998046875	-79.1166458129881	1336.443725585938	790.4872436523438	-71.46807861328108	1232.920043945312	1469.471069335938	-533.4568481445309	1205.754150390625	1298.129150390625	-618.6336059570309	1266.681640625	1216.7880859375	-616.6837768554685	1144.723266601562	1220.335571289063	-637.6533203124998	1200.848876953125	1113.343017578125	-639.422912597656	1152.245849609375	1112.29541015625	-580.7757568359373	1294.714965820312	934.1596069335939	-627.499572753906	1323.132934570312	871.5881958007814	-575.6840209960935	1275.508056640625	852.9776611328126	-635.650939941406	1346.654296875	790.2672729492189	-624.0182495117185	1232.791625976562	1071.31982421875	-177.4457397460935	1107.494018554688	1042.350463867188	-348.0085144042966	1228.169555664062	1065.044921875	-523.8822021484373	1186.053344726562	920.29296875	-162.7614288330076	1232.378295898438	641.517578125	-174.9349365234374	1288.892944335938	658.095947265625	-169.3847808837889	1294.532104492188	553.5701293945312	-193.1974487304686	1229.544677734375	559.8602294921875	-189.0784759521483	1107.990966796875	410.9378967285157	-176.6806182861327	1130.042114257812	356.2872924804688	-188.2455902099609	1065.2060546875	301.0127563476563	-202.9193572998046	1026.99267578125	350.9153747558594	-195.2851562499999	851.8148193359375	248.5309753417969	-274.7389526367187	913.2759399414062	104.5216598510743	-182.288101196289	958.2200317382812	66.21103668212896	-266.0457763671875	1204.641479492188	955.7246093750001	-529.1273803710935	1348.932495117188	681.6856689453126	-502.6873168945311	1294.247924804688	689.4721679687501	-523.7335815429686	1296.651123046875	587.3725585937501	-487.6565551757811	1358.077514648438	603.6970825195314	-475.3363647460936	1333.437622070312	324.2216186523439	-462.6481933593749	1275.056274414062	306.6260986328126	-469.6702270507812	1266.099975585938	222.2341766357423	-451.0634155273437	1329.129150390625	225.3132934570313	-436.9430236816406	1209.590209960938	41.56178665161141	-373.48046875	1386.53271484375	20.73375129699717	-442.7557678222656	1421.22021484375	27.81251716613777	-334.8199157714844	
199	0.792	1362.631225585938	1739.682495117188	-346.4958801269527	1298.456176757812	1683.048583984375	-278.2402648925777	1306.894775390625	1699.513061523438	-424.0612182617184	1162.312622070312	1521.733032226562	-368.901947021484	1088.33447265625	1329.016723632812	-292.8667297363278	1090.525390625	1323.925415039062	-428.6104431152341	1343.154663085938	1359.688598632812	-364.7352905273435	1241.87109375	1478.3447265625	-195.5316162109372	1210.885009765625	1320.937255859375	-100.7017669677731	1273.39794921875	1235.709350585938	-103.2944564819333	1153.480102539062	1236.87451171875	-82.78946685790989	1201.2509765625	1130.395263671875	-81.00154113769506	1170.30615234375	1126.513916015625	-158.503723144531	1300.521850585938	946.4937133789062	-84.73814392089822	1333.655395507812	879.3482666015625	-126.1489562988279	1270.603759765625	858.19140625	-79.37523651123028	1341.153076171875	791.451904296875	-71.71214294433577	1238.487182617188	1470.725219726563	-533.6404418945309	1211.646484375	1299.3876953125	-619.0789794921872	1272.672607421875	1217.945190429688	-616.1712646484373	1150.882568359375	1221.615600585938	-638.453186035156	1207.5068359375	1114.449951171875	-639.8182983398435	1158.218383789062	1113.473999023438	-581.4051513671873	1301.614624023438	936.0283203125001	-627.4786376953123	1329.813720703125	873.3198242187501	-575.1411132812498	1282.670776367188	854.5750732421876	-635.735412597656	1354.175048828125	792.2029418945314	-623.953918457031	1238.648193359375	1072.36767578125	-177.8716125488279	1112.947509765625	1043.492797851562	-348.5487060546873	1233.791625976562	1066.111328125	-524.3021240234373	1191.955322265625	921.3219604492188	-163.1319885253904	1240.920288085938	642.5444946289062	-175.4654235839842	1297.355590820312	659.4100952148438	-169.7570190429686	1303.8857421875	554.818359375	-193.5562286376952	1238.3984375	560.5432739257812	-189.2846069335936	1117.639404296875	411.4596252441407	-177.1546936035155	1140.502563476562	356.7231140136719	-188.2865753173827	1075.981201171875	301.0163879394532	-202.8749237060546	1037.27783203125	351.1983032226563	-194.8578491210937	862.8079223632812	246.1642761230469	-274.7267761230468	927.0451049804688	103.357780456543	-182.2756195068359	972.826171875	65.88735961914068	-265.8386840820312	1209.865844726562	956.4313964843751	-529.4130859374998	1351.803344726562	681.4720458984376	-502.9699096679686	1297.377685546875	689.8740234375001	-523.8148193359374	1299.062255859375	587.8898315429689	-487.9694519042968	1360.504150390625	603.3808593750001	-475.3306579589843	1334.101196289062	324.413543701172	-463.1291809082031	1275.635009765625	306.9638671875001	-469.7127685546874	1266.558349609375	222.3886260986329	-451.0347290039062	1329.556274414062	225.3318634033204	-437.0608825683593	1209.660766601562	41.72496414184579	-373.4806213378906	1386.549926757812	20.69543647766123	-442.8222961425781	1421.307983398438	27.74525451660164	-334.7866516113281	
200	0.796	1368.114990234375	1740.621215820312	-346.8474731445309	1303.916625976562	1684.223388671875	-278.5803527832027	1312.2060546875	1700.454467773438	-424.3307495117184	1167.746826171875	1522.847534179688	-369.0969848632809	1093.809936523438	1329.856811523438	-293.691955566406	1095.9267578125	1324.965087890625	-429.1193847656247	1348.728271484375	1360.6650390625	-364.8761291503903	1246.96484375	1479.434326171875	-195.6720428466793	1215.842651367188	1321.9345703125	-100.8205642700192	1278.278442382812	1236.627319335938	-103.3422927856443	1158.427124023438	1237.967529296875	-83.0312194824216	1205.905029296875	1131.501708984375	-80.93335723876928	1174.768798828125	1127.682373046875	-158.3119201660154	1305.186645507812	947.63671875	-85.07022857665994	1338.2744140625	880.3892822265625	-126.4434280395506	1275.388549804688	859.4885864257812	-79.37810516357403	1345.772338867188	792.36279296875	-72.14608001708967	1244.042236328125	1471.883911132813	-533.7434692382809	1217.685913085938	1300.63916015625	-619.4088745117184	1278.81591796875	1219.279663085938	-616.5441894531248	1157.113647460938	1222.675903320313	-639.041564941406	1213.285888671875	1116.059936523438	-640.5241699218748	1164.4541015625	1114.671630859375	-582.0316162109373	1308.47998046875	937.2871704101564	-627.6735229492185	1336.95068359375	875.0727539062501	-575.6981201171873	1289.98779296875	856.1495971679689	-635.732727050781	1361.679809570312	793.9722900390626	-623.8098144531248	1243.8359375	1073.391357421875	-178.4294128417966	1118.422485351562	1044.56201171875	-349.304016113281	1239.412231445312	1067.446899414063	-524.6742553710935	1197.835327148438	922.3715209960938	-163.5165710449217	1249.455810546875	643.61328125	-175.561325073242	1305.693725585938	660.8350219726562	-170.2542114257811	1312.553466796875	556.6141357421875	-194.1876983642577	1247.396728515625	561.393798828125	-189.6385040283202	1127.767700195312	411.9597167968751	-177.7818450927734	1150.762939453125	357.4287109375001	-188.6822967529296	1086.997802734375	300.7208557128907	-203.2912292480468	1047.758544921875	350.9035339355469	-195.5025939941405	873.8963623046875	243.3879699707032	-274.7503356933593	941.3525390625	102.0074081420899	-182.3477935791015	987.7217407226562	65.55165100097662	-265.94677734375	1215.282958984375	957.1075439453126	-529.7789306640623	1355.087768554688	681.1498413085939	-502.9018249511717	1300.4013671875	689.9444580078126	-524.2002563476561	1301.003784179688	588.1572265625001	-487.942657470703	1362.7861328125	603.1777954101564	-475.751983642578	1334.4716796875	325.1002807617189	-464.6528015136718	1276.283203125	307.4885253906251	-470.0283508300781	1267.009155273438	222.5313110351564	-450.6881713867187	1330.11328125	225.3446197509766	-437.9989624023437	1209.77294921875	41.97602081298837	-373.5289001464844	1386.586303710938	20.6711425781251	-442.8753967285156	1421.413818359375	27.66047096252449	-334.7190246582031	
